<svg width="28.000000" height="28.000000" viewBox="0 0 28 28" fill="none" xmlns="http://www.w3.org/2000/svg" xmlns:xlink="http://www.w3.org/1999/xlink">
	<defs/>
	<g opacity="0.240000" style="mix-blend-mode:normal">
		<path id="Oval" d="M14 28C21.73 28 28 21.73 28 14C28 6.26 21.73 0 14 0C6.26 0 0 6.26 0 14C0 21.73 6.26 28 14 28Z" fill="#000000" fill-opacity="1.000000" fill-rule="nonzero"/>
	</g>
	<path id="Left Arrow" d="M16 8.66L16.53 9.2C16.71 9.39 16.79 9.61 16.79 9.85C16.79 10.11 16.71 10.32 16.53 10.5L13.07 14L16.53 17.49C16.71 17.67 16.79 17.88 16.79 18.14C16.79 18.38 16.71 18.6 16.53 18.79L16 19.32C15.82 19.5 15.6 19.6 15.35 19.6C15.09 19.6 14.88 19.5 14.71 19.32L10.07 14.64C9.89 14.47 9.8 14.25 9.8 14C9.8 13.74 9.89 13.52 10.07 13.34L14.71 8.66C14.88 8.48 15.1 8.4 15.35 8.4C15.6 8.4 15.81 8.48 16 8.66Z" fill="#FFFFFF" fill-opacity="1.000000" fill-rule="evenodd"/>
</svg>
