<svg width="18.000000" height="16.858246" viewBox="0 0 18 16.8582" fill="none" xmlns="http://www.w3.org/2000/svg" xmlns:xlink="http://www.w3.org/1999/xlink">
	<defs/>
		<path id="Combined-Shape" d="M12.6 0C11.217 0 9.95537 0.530853 9 1.4039C8.04463 0.530853 6.78304 0 5.39999 0C2.41766 0 0 2.46848 0 5.51352C0 9.95786 4.48071 14.2534 8.62048 16.7596C8.83009 16.8923 9.17316 16.8905 9.38216 16.7577C13.4946 14.2433 18 9.95764 18 5.51352C18 2.46848 15.5823 0 12.6 0ZM1.8 5.51352C1.8 8.3844 4.5546 11.8546 9.00508 14.8252C13.4557 11.8546 16.2 8.45822 16.2 5.51352C16.2 3.48349 14.5882 1.83783 12.6 1.83783C11.7004 1.83783 10.8568 2.17358 10.2004 2.77335L9.3344 3.56479C9.14972 3.73355 8.8528 3.73584 8.6656 3.56479L7.79956 2.77335C7.14325 2.17358 6.29959 1.83783 5.39999 1.83783C3.41177 1.83783 1.8 3.48349 1.8 5.51352Z" clip-rule="evenodd" fill="#898989" fill-opacity="1.000000" fill-rule="evenodd"/>
</svg>
